<svg xmlns="http://www.w3.org/2000/svg" xmlns:xlink="http://www.w3.org/1999/xlink" width="500" zoomAndPan="magnify" viewBox="0 0 375 149.999998" height="200" preserveAspectRatio="xMidYMid meet" version="1.2"><defs/><g id="ce9944c3c6"><g style="fill:#008cff;fill-opacity:1;"><g transform="translate(15.000002, 101.461514)"><path style="stroke:none" d="M 3.125 0 L 3.125 -56.140625 L 21.703125 -56.140625 C 26.816406 -56.140625 30.984375 -55.648438 34.203125 -54.671875 C 37.429688 -53.691406 39.789062 -52.085938 41.28125 -49.859375 C 42.78125 -47.640625 43.53125 -44.640625 43.53125 -40.859375 C 43.53125 -37.066406 42.78125 -34.035156 41.28125 -31.765625 C 39.789062 -29.503906 37.429688 -27.875 34.203125 -26.875 C 30.984375 -25.882812 26.816406 -25.390625 21.703125 -25.390625 L 8.734375 -25.390625 L 8.734375 0 Z M 8.734375 -30.6875 L 21.703125 -30.6875 C 24.117188 -30.6875 26.3125 -30.78125 28.28125 -30.96875 C 30.257812 -31.15625 31.960938 -31.582031 33.390625 -32.25 C 34.828125 -32.914062 35.941406 -33.921875 36.734375 -35.265625 C 37.523438 -36.617188 37.921875 -38.484375 37.921875 -40.859375 C 37.921875 -43.179688 37.523438 -45.019531 36.734375 -46.375 C 35.941406 -47.726562 34.828125 -48.71875 33.390625 -49.34375 C 31.960938 -49.96875 30.257812 -50.367188 28.28125 -50.546875 C 26.3125 -50.734375 24.117188 -50.828125 21.703125 -50.828125 L 8.734375 -50.828125 Z M 8.734375 -30.6875 "/></g></g><g style="fill:#008cff;fill-opacity:1;"><g transform="translate(58.531065, 101.461514)"><path style="stroke:none" d="M 3.125 -12.46875 C 3.125 -17.164062 5.003906 -20.710938 8.765625 -23.109375 C 12.523438 -25.503906 18.148438 -27.21875 25.640625 -28.25 L 34.1875 -29.4375 C 34.1875 -32.9375 33.25 -35.398438 31.375 -36.828125 C 29.5 -38.265625 27.003906 -38.984375 23.890625 -38.984375 C 21.804688 -38.984375 19.859375 -38.648438 18.046875 -37.984375 C 16.242188 -37.316406 14.789062 -36.191406 13.6875 -34.609375 C 12.582031 -33.035156 12.03125 -30.851562 12.03125 -28.0625 L 5.796875 -28.0625 C 5.796875 -31.101562 6.441406 -33.835938 7.734375 -36.265625 C 9.023438 -38.703125 11.007812 -40.644531 13.6875 -42.09375 C 16.375 -43.550781 19.796875 -44.28125 23.953125 -44.28125 C 28.109375 -44.28125 31.378906 -43.539062 33.765625 -42.0625 C 36.160156 -40.59375 37.867188 -38.546875 38.890625 -35.921875 C 39.910156 -33.304688 40.421875 -30.296875 40.421875 -26.890625 L 40.421875 -14.28125 C 40.421875 -11.5 40.628906 -9.304688 41.046875 -7.703125 C 41.460938 -6.097656 42.289062 -5.296875 43.53125 -5.296875 L 44.15625 -5.296875 L 44.15625 0 L 43.53125 0 C 41.457031 0 39.859375 -0.382812 38.734375 -1.15625 C 37.609375 -1.925781 36.828125 -3.335938 36.390625 -5.390625 C 35.953125 -7.453125 35.734375 -10.414062 35.734375 -14.28125 L 34.5 -14.28125 C 33.875 -11.125 32.695312 -8.429688 30.96875 -6.203125 C 29.238281 -3.984375 27.195312 -2.28125 24.84375 -1.09375 C 22.5 0.09375 20.082031 0.6875 17.59375 0.6875 C 15.09375 0.6875 12.738281 0.238281 10.53125 -0.65625 C 8.332031 -1.550781 6.546875 -2.960938 5.171875 -4.890625 C 3.804688 -6.828125 3.125 -9.351562 3.125 -12.46875 Z M 9.359375 -12.46875 C 9.359375 -9.976562 10.03125 -8.054688 11.375 -6.703125 C 12.726562 -5.347656 15.007812 -4.671875 18.21875 -4.671875 C 19.789062 -4.671875 21.441406 -4.921875 23.171875 -5.421875 C 24.898438 -5.921875 26.550781 -6.859375 28.125 -8.234375 C 29.707031 -9.609375 31.050781 -11.570312 32.15625 -14.125 C 33.257812 -16.6875 33.957031 -20.003906 34.25 -24.078125 L 25.640625 -22.953125 C 22.179688 -22.492188 19.378906 -21.921875 17.234375 -21.234375 C 15.097656 -20.546875 13.457031 -19.765625 12.3125 -18.890625 C 11.175781 -18.023438 10.398438 -17.050781 9.984375 -15.96875 C 9.566406 -14.882812 9.359375 -13.71875 9.359375 -12.46875 Z M 9.359375 -12.46875 "/></g></g><g style="fill:#008cff;fill-opacity:1;"><g transform="translate(105.804405, 101.461514)"><path style="stroke:none" d="M 3.125 -43.65625 L 9.046875 -43.65625 L 18.34375 -4.671875 L 23.078125 -4.671875 L 32.375 -43.65625 L 38.296875 -43.65625 L 27.015625 2.875 C 26.347656 5.613281 25.648438 7.96875 24.921875 9.9375 C 24.191406 11.914062 23.273438 13.5625 22.171875 14.875 C 21.066406 16.1875 19.597656 17.15625 17.765625 17.78125 C 15.941406 18.40625 13.617188 18.71875 10.796875 18.71875 L 10.796875 12.71875 C 12.953125 12.71875 14.675781 12.382812 15.96875 11.71875 C 17.257812 11.0625 18.296875 10.015625 19.078125 8.578125 C 19.867188 7.140625 20.578125 5.238281 21.203125 2.875 L 21.953125 0 L 13.53125 0 Z M 3.125 -43.65625 "/></g></g><g style="fill:#008cff;fill-opacity:1;"><g transform="translate(147.227551, 101.461514)"><path style="stroke:none" d="M 28.8125 1.0625 C 24.570312 1.0625 20.835938 0.289062 17.609375 -1.25 C 14.390625 -2.789062 11.707031 -4.898438 9.5625 -7.578125 C 7.425781 -10.265625 5.816406 -13.351562 4.734375 -16.84375 C 3.660156 -20.332031 3.125 -24.050781 3.125 -28 C 3.125 -31.957031 3.660156 -35.679688 4.734375 -39.171875 C 5.816406 -42.660156 7.425781 -45.734375 9.5625 -48.390625 C 11.707031 -51.054688 14.390625 -53.160156 17.609375 -54.703125 C 20.835938 -56.242188 24.570312 -57.015625 28.8125 -57.015625 C 33.050781 -57.015625 36.769531 -56.242188 39.96875 -54.703125 C 43.175781 -53.160156 45.847656 -51.054688 47.984375 -48.390625 C 50.128906 -45.734375 51.742188 -42.660156 52.828125 -39.171875 C 53.910156 -35.679688 54.453125 -31.957031 54.453125 -28 C 54.453125 -24.175781 53.941406 -20.554688 52.921875 -17.140625 C 51.898438 -13.734375 50.390625 -10.695312 48.390625 -8.03125 C 46.398438 -5.375 43.890625 -3.257812 40.859375 -1.6875 L 40.859375 0 C 44.429688 0 47.003906 0.773438 48.578125 2.328125 C 50.160156 3.890625 50.953125 6.023438 50.953125 8.734375 C 50.953125 10.523438 50.523438 12.175781 49.671875 13.6875 C 48.828125 15.207031 47.28125 16.425781 45.03125 17.34375 C 42.789062 18.257812 39.546875 18.71875 35.296875 18.71875 L 13.53125 18.71875 L 13.53125 10.734375 L 28.5625 10.734375 C 32.144531 10.734375 34.941406 10.566406 36.953125 10.234375 C 38.972656 9.898438 40.398438 9.359375 41.234375 8.609375 C 42.066406 7.859375 42.484375 6.898438 42.484375 5.734375 C 42.484375 4.523438 42.066406 3.585938 41.234375 2.921875 C 40.398438 2.265625 38.992188 1.789062 37.015625 1.5 C 35.046875 1.207031 32.3125 1.0625 28.8125 1.0625 Z M 11.78125 -28 C 11.78125 -23.757812 12.375 -20.085938 13.5625 -16.984375 C 14.75 -13.890625 16.597656 -11.488281 19.109375 -9.78125 C 21.628906 -8.082031 24.863281 -7.234375 28.8125 -7.234375 C 32.8125 -7.234375 36.054688 -8.082031 38.546875 -9.78125 C 41.046875 -11.488281 42.875 -13.890625 44.03125 -16.984375 C 45.195312 -20.085938 45.78125 -23.757812 45.78125 -28 C 45.78125 -32.25 45.195312 -35.921875 44.03125 -39.015625 C 42.875 -42.109375 41.046875 -44.5 38.546875 -46.1875 C 36.054688 -47.875 32.8125 -48.71875 28.8125 -48.71875 C 24.863281 -48.71875 21.628906 -47.875 19.109375 -46.1875 C 16.597656 -44.5 14.75 -42.109375 13.5625 -39.015625 C 12.375 -35.921875 11.78125 -32.25 11.78125 -28 Z M 11.78125 -28 "/></g></g><g style="fill:#008cff;fill-opacity:1;"><g transform="translate(205.414981, 101.461514)"><path style="stroke:none" d="M 45.09375 -43.65625 L 45.09375 0 L 36.921875 0 L 38.546875 -11.609375 L 36.921875 -11.609375 C 35.835938 -7.566406 33.90625 -4.617188 31.125 -2.765625 C 28.34375 -0.921875 24.929688 0 20.890625 0 C 18.609375 0 16.425781 -0.351562 14.34375 -1.0625 C 12.269531 -1.769531 10.410156 -2.898438 8.765625 -4.453125 C 7.117188 -6.015625 5.828125 -8.082031 4.890625 -10.65625 C 3.960938 -13.238281 3.5 -16.421875 3.5 -20.203125 L 3.5 -43.65625 L 11.71875 -43.65625 L 11.71875 -20.203125 C 11.71875 -16.835938 12.207031 -14.175781 13.1875 -12.21875 C 14.164062 -10.269531 15.492188 -8.867188 17.171875 -8.015625 C 18.859375 -7.160156 20.765625 -6.734375 22.890625 -6.734375 C 25.597656 -6.734375 28 -7.210938 30.09375 -8.171875 C 32.195312 -9.128906 33.847656 -10.59375 35.046875 -12.5625 C 36.253906 -14.539062 36.859375 -17.085938 36.859375 -20.203125 L 36.921875 -43.65625 Z M 45.09375 -43.65625 "/></g></g><g style="fill:#008cff;fill-opacity:1;"><g transform="translate(252.376363, 101.461514)"><path style="stroke:none" d="M 4.359375 0 L 4.359375 -43.65625 L 12.59375 -43.65625 L 12.59375 0 Z M 3.125 -50.828125 L 8.484375 -56.140625 L 13.78125 -50.828125 L 8.484375 -45.53125 Z M 3.125 -50.828125 "/></g></g><g style="fill:#008cff;fill-opacity:1;"><g transform="translate(268.03007, 101.461514)"><path style="stroke:none" d="M 3.125 -21.828125 C 3.125 -24.910156 3.648438 -27.8125 4.703125 -30.53125 C 5.765625 -33.257812 7.269531 -35.648438 9.21875 -37.703125 C 11.175781 -39.765625 13.472656 -41.375 16.109375 -42.53125 C 18.753906 -43.695312 21.660156 -44.28125 24.828125 -44.28125 C 29.191406 -44.28125 32.898438 -43.46875 35.953125 -41.84375 C 39.015625 -40.226562 41.394531 -38.035156 43.09375 -35.265625 C 44.800781 -32.503906 45.78125 -29.441406 46.03125 -26.078125 L 37.734375 -26.078125 C 37.066406 -30.023438 35.617188 -32.765625 33.390625 -34.296875 C 31.171875 -35.835938 28.316406 -36.609375 24.828125 -36.609375 C 21.785156 -36.609375 19.265625 -35.921875 17.265625 -34.546875 C 15.273438 -33.179688 13.789062 -31.382812 12.8125 -29.15625 C 11.84375 -26.9375 11.359375 -24.492188 11.359375 -21.828125 C 11.359375 -19.128906 11.84375 -16.65625 12.8125 -14.40625 C 13.789062 -12.164062 15.273438 -10.378906 17.265625 -9.046875 C 19.265625 -7.710938 21.785156 -7.046875 24.828125 -7.046875 C 28.316406 -7.046875 31.171875 -7.863281 33.390625 -9.5 C 35.617188 -11.144531 37.066406 -13.738281 37.734375 -17.28125 L 46.03125 -17.28125 C 45.78125 -14.03125 44.800781 -11.039062 43.09375 -8.3125 C 41.394531 -5.59375 39.015625 -3.421875 35.953125 -1.796875 C 32.898438 -0.179688 29.191406 0.625 24.828125 0.625 C 21.660156 0.625 18.753906 0.0390625 16.109375 -1.125 C 13.472656 -2.289062 11.175781 -3.890625 9.21875 -5.921875 C 7.269531 -7.960938 5.765625 -10.34375 4.703125 -13.0625 C 3.648438 -15.789062 3.125 -18.710938 3.125 -21.828125 Z M 3.125 -21.828125 "/></g></g><g style="fill:#008cff;fill-opacity:1;"><g transform="translate(317.174378, 101.461514)"><path style="stroke:none" d="M 3.125 0 L 3.125 -56.140625 L 11.359375 -56.140625 L 11.359375 -25.140625 L 18.46875 -25.140625 L 30.875 -43.65625 L 39.734375 -43.65625 L 27.3125 -25.140625 L 39.109375 -25.140625 L 39.109375 0 L 30.875 0 L 30.875 -18.53125 L 11.359375 -18.53125 L 11.359375 0 Z M 3.125 0 "/></g></g></g></svg>