<svg xmlns="http://www.w3.org/2000/svg" xmlns:xlink="http://www.w3.org/1999/xlink" width="500" zoomAndPan="magnify" viewBox="0 0 375 374.999991" height="500" preserveAspectRatio="xMidYMid meet" version="1.2"><defs/><g id="8a93cc0905"><g style="fill:#000000;fill-opacity:1;"><g transform="translate(35.935549, 210.749986)"><path style="stroke:none" d="M 2.734375 0 L 2.734375 -49.3125 L 19.0625 -49.3125 C 23.5625 -49.3125 27.222656 -48.878906 30.046875 -48.015625 C 32.878906 -47.160156 34.953125 -45.753906 36.265625 -43.796875 C 37.585938 -41.847656 38.25 -39.210938 38.25 -35.890625 C 38.25 -32.566406 37.585938 -29.910156 36.265625 -27.921875 C 34.953125 -25.929688 32.878906 -24.492188 30.046875 -23.609375 C 27.222656 -22.734375 23.5625 -22.296875 19.0625 -22.296875 L 7.671875 -22.296875 L 7.671875 0 Z M 7.671875 -26.953125 L 19.0625 -26.953125 C 21.1875 -26.953125 23.113281 -27.035156 24.84375 -27.203125 C 26.582031 -27.367188 28.082031 -27.742188 29.34375 -28.328125 C 30.601562 -28.910156 31.578125 -29.796875 32.265625 -30.984375 C 32.960938 -32.171875 33.3125 -33.804688 33.3125 -35.890625 C 33.3125 -37.929688 32.960938 -39.546875 32.265625 -40.734375 C 31.578125 -41.921875 30.601562 -42.789062 29.34375 -43.34375 C 28.082031 -43.894531 26.582031 -44.25 24.84375 -44.40625 C 23.113281 -44.570312 21.1875 -44.65625 19.0625 -44.65625 L 7.671875 -44.65625 Z M 7.671875 -26.953125 "/></g></g><g style="fill:#000000;fill-opacity:1;"><g transform="translate(74.18344, 210.749986)"><path style="stroke:none" d="M 2.734375 -10.953125 C 2.734375 -15.085938 4.382812 -18.203125 7.6875 -20.296875 C 11 -22.398438 15.941406 -23.910156 22.515625 -24.828125 L 30.03125 -25.859375 C 30.03125 -28.929688 29.207031 -31.097656 27.5625 -32.359375 C 25.914062 -33.617188 23.722656 -34.25 20.984375 -34.25 C 19.160156 -34.25 17.453125 -33.957031 15.859375 -33.375 C 14.273438 -32.789062 13 -31.800781 12.03125 -30.40625 C 11.0625 -29.019531 10.578125 -27.101562 10.578125 -24.65625 L 5.09375 -24.65625 C 5.09375 -27.320312 5.660156 -29.722656 6.796875 -31.859375 C 7.929688 -33.992188 9.675781 -35.703125 12.03125 -36.984375 C 14.382812 -38.265625 17.390625 -38.90625 21.046875 -38.90625 C 24.691406 -38.90625 27.566406 -38.253906 29.671875 -36.953125 C 31.773438 -35.660156 33.273438 -33.863281 34.171875 -31.5625 C 35.066406 -29.257812 35.515625 -26.613281 35.515625 -23.625 L 35.515625 -12.546875 C 35.515625 -10.097656 35.695312 -8.171875 36.0625 -6.765625 C 36.425781 -5.359375 37.15625 -4.65625 38.25 -4.65625 L 38.796875 -4.65625 L 38.796875 0 L 38.25 0 C 36.425781 0 35.019531 -0.335938 34.03125 -1.015625 C 33.039062 -1.691406 32.351562 -2.929688 31.96875 -4.734375 C 31.59375 -6.546875 31.40625 -9.148438 31.40625 -12.546875 L 30.296875 -12.546875 C 29.753906 -9.773438 28.722656 -7.410156 27.203125 -5.453125 C 25.691406 -3.492188 23.898438 -1.992188 21.828125 -0.953125 C 19.765625 0.0859375 17.640625 0.609375 15.453125 0.609375 C 13.265625 0.609375 11.203125 0.21875 9.265625 -0.5625 C 7.328125 -1.351562 5.753906 -2.597656 4.546875 -4.296875 C 3.335938 -5.992188 2.734375 -8.210938 2.734375 -10.953125 Z M 8.21875 -10.953125 C 8.21875 -8.765625 8.8125 -7.078125 10 -5.890625 C 11.1875 -4.703125 13.1875 -4.109375 16 -4.109375 C 17.382812 -4.109375 18.832031 -4.328125 20.34375 -4.765625 C 21.863281 -5.203125 23.316406 -6.023438 24.703125 -7.234375 C 26.097656 -8.441406 27.28125 -10.164062 28.25 -12.40625 C 29.21875 -14.65625 29.828125 -17.570312 30.078125 -21.15625 L 22.515625 -20.171875 C 19.484375 -19.765625 17.023438 -19.257812 15.140625 -18.65625 C 13.265625 -18.050781 11.820312 -17.363281 10.8125 -16.59375 C 9.8125 -15.832031 9.128906 -14.976562 8.765625 -14.03125 C 8.398438 -13.082031 8.21875 -12.054688 8.21875 -10.953125 Z M 8.21875 -10.953125 "/></g></g><g style="fill:#000000;fill-opacity:1;"><g transform="translate(115.719425, 210.749986)"><path style="stroke:none" d="M 2.734375 -38.359375 L 7.953125 -38.359375 L 16.109375 -4.109375 L 20.28125 -4.109375 L 28.4375 -38.359375 L 33.640625 -38.359375 L 23.734375 2.515625 C 23.140625 4.929688 22.523438 7.003906 21.890625 8.734375 C 21.253906 10.472656 20.453125 11.914062 19.484375 13.0625 C 18.515625 14.21875 17.222656 15.066406 15.609375 15.609375 C 14.003906 16.160156 11.960938 16.4375 9.484375 16.4375 L 9.484375 11.171875 C 11.378906 11.171875 12.894531 10.878906 14.03125 10.296875 C 15.164062 9.710938 16.078125 8.789062 16.765625 7.53125 C 17.460938 6.269531 18.082031 4.597656 18.625 2.515625 L 19.28125 0 L 11.890625 0 Z M 2.734375 -38.359375 "/></g></g><g style="fill:#000000;fill-opacity:1;"><g transform="translate(152.115229, 210.749986)"><path style="stroke:none" d="M 25.3125 0.9375 C 21.59375 0.9375 18.316406 0.257812 15.484375 -1.09375 C 12.648438 -2.445312 10.289062 -4.300781 8.40625 -6.65625 C 6.53125 -9.007812 5.113281 -11.71875 4.15625 -14.78125 C 3.207031 -17.851562 2.734375 -21.128906 2.734375 -24.609375 C 2.734375 -28.078125 3.207031 -31.34375 4.15625 -34.40625 C 5.113281 -37.476562 6.53125 -40.179688 8.40625 -42.515625 C 10.289062 -44.859375 12.648438 -46.703125 15.484375 -48.046875 C 18.316406 -49.398438 21.59375 -50.078125 25.3125 -50.078125 C 29.039062 -50.078125 32.3125 -49.398438 35.125 -48.046875 C 37.9375 -46.703125 40.28125 -44.859375 42.15625 -42.515625 C 44.039062 -40.179688 45.457031 -37.476562 46.40625 -34.40625 C 47.363281 -31.34375 47.84375 -28.078125 47.84375 -24.609375 C 47.84375 -21.242188 47.394531 -18.0625 46.5 -15.0625 C 45.601562 -12.070312 44.273438 -9.40625 42.515625 -7.0625 C 40.765625 -4.726562 38.554688 -2.867188 35.890625 -1.484375 L 35.890625 0 C 39.035156 0 41.300781 0.679688 42.6875 2.046875 C 44.070312 3.421875 44.765625 5.296875 44.765625 7.671875 C 44.765625 9.242188 44.390625 10.695312 43.640625 12.03125 C 42.890625 13.363281 41.53125 14.429688 39.5625 15.234375 C 37.59375 16.035156 34.742188 16.4375 31.015625 16.4375 L 11.890625 16.4375 L 11.890625 9.421875 L 25.09375 9.421875 C 28.238281 9.421875 30.695312 9.273438 32.46875 8.984375 C 34.238281 8.691406 35.488281 8.21875 36.21875 7.5625 C 36.945312 6.90625 37.3125 6.066406 37.3125 5.046875 C 37.3125 3.984375 36.945312 3.160156 36.21875 2.578125 C 35.488281 1.992188 34.253906 1.570312 32.515625 1.3125 C 30.785156 1.0625 28.382812 0.9375 25.3125 0.9375 Z M 10.359375 -24.609375 C 10.359375 -20.878906 10.878906 -17.648438 11.921875 -14.921875 C 12.960938 -12.203125 14.585938 -10.09375 16.796875 -8.59375 C 19.003906 -7.101562 21.84375 -6.359375 25.3125 -6.359375 C 28.820312 -6.359375 31.671875 -7.101562 33.859375 -8.59375 C 36.054688 -10.09375 37.664062 -12.203125 38.6875 -14.921875 C 39.707031 -17.648438 40.21875 -20.878906 40.21875 -24.609375 C 40.21875 -28.328125 39.707031 -31.546875 38.6875 -34.265625 C 37.664062 -36.992188 36.054688 -39.097656 33.859375 -40.578125 C 31.671875 -42.054688 28.820312 -42.796875 25.3125 -42.796875 C 21.84375 -42.796875 19.003906 -42.054688 16.796875 -40.578125 C 14.585938 -39.097656 12.960938 -36.992188 11.921875 -34.265625 C 10.878906 -31.546875 10.359375 -28.328125 10.359375 -24.609375 Z M 10.359375 -24.609375 "/></g></g><g style="fill:#000000;fill-opacity:1;"><g transform="translate(203.24071, 210.749986)"><path style="stroke:none" d="M 39.625 -38.359375 L 39.625 0 L 32.4375 0 L 33.859375 -10.1875 L 32.4375 -10.1875 C 31.488281 -6.644531 29.789062 -4.0625 27.34375 -2.4375 C 24.894531 -0.8125 21.898438 0 18.359375 0 C 16.347656 0 14.425781 -0.304688 12.59375 -0.921875 C 10.769531 -1.546875 9.132812 -2.539062 7.6875 -3.90625 C 6.25 -5.28125 5.117188 -7.097656 4.296875 -9.359375 C 3.472656 -11.628906 3.0625 -14.425781 3.0625 -17.75 L 3.0625 -38.359375 L 10.296875 -38.359375 L 10.296875 -17.75 C 10.296875 -14.789062 10.722656 -12.453125 11.578125 -10.734375 C 12.441406 -9.023438 13.613281 -7.796875 15.09375 -7.046875 C 16.570312 -6.296875 18.242188 -5.921875 20.109375 -5.921875 C 22.484375 -5.921875 24.59375 -6.335938 26.4375 -7.171875 C 28.28125 -8.015625 29.734375 -9.300781 30.796875 -11.03125 C 31.859375 -12.769531 32.390625 -15.007812 32.390625 -17.75 L 32.4375 -38.359375 Z M 39.625 -38.359375 "/></g></g><g style="fill:#000000;fill-opacity:1;"><g transform="translate(244.502598, 210.749986)"><path style="stroke:none" d="M 3.828125 0 L 3.828125 -38.359375 L 11.0625 -38.359375 L 11.0625 0 Z M 2.734375 -44.65625 L 7.453125 -49.3125 L 12.109375 -44.65625 L 7.453125 -40 Z M 2.734375 -44.65625 "/></g></g><g style="fill:#000000;fill-opacity:1;"><g transform="translate(258.256484, 210.749986)"><path style="stroke:none" d="M 2.734375 -19.171875 C 2.734375 -21.878906 3.195312 -24.425781 4.125 -26.8125 C 5.0625 -29.207031 6.390625 -31.3125 8.109375 -33.125 C 9.828125 -34.9375 11.84375 -36.351562 14.15625 -37.375 C 16.476562 -38.394531 19.03125 -38.90625 21.8125 -38.90625 C 25.644531 -38.90625 28.90625 -38.191406 31.59375 -36.765625 C 34.28125 -35.335938 36.367188 -33.410156 37.859375 -30.984375 C 39.359375 -28.554688 40.21875 -25.863281 40.4375 -22.90625 L 33.15625 -22.90625 C 32.570312 -26.375 31.300781 -28.785156 29.34375 -30.140625 C 27.382812 -31.492188 24.875 -32.171875 21.8125 -32.171875 C 19.144531 -32.171875 16.929688 -31.566406 15.171875 -30.359375 C 13.421875 -29.148438 12.113281 -27.566406 11.25 -25.609375 C 10.394531 -23.660156 9.96875 -21.515625 9.96875 -19.171875 C 9.96875 -16.796875 10.394531 -14.625 11.25 -12.65625 C 12.113281 -10.6875 13.421875 -9.113281 15.171875 -7.9375 C 16.929688 -6.769531 19.144531 -6.1875 21.8125 -6.1875 C 24.875 -6.1875 27.382812 -6.90625 29.34375 -8.34375 C 31.300781 -9.789062 32.570312 -12.066406 33.15625 -15.171875 L 40.4375 -15.171875 C 40.21875 -12.328125 39.359375 -9.707031 37.859375 -7.3125 C 36.367188 -4.914062 34.28125 -3.003906 31.59375 -1.578125 C 28.90625 -0.160156 25.644531 0.546875 21.8125 0.546875 C 19.03125 0.546875 16.476562 0.0351562 14.15625 -0.984375 C 11.84375 -2.003906 9.828125 -3.410156 8.109375 -5.203125 C 6.390625 -6.992188 5.0625 -9.082031 4.125 -11.46875 C 3.195312 -13.863281 2.734375 -16.429688 2.734375 -19.171875 Z M 2.734375 -19.171875 "/></g></g><g style="fill:#000000;fill-opacity:1;"><g transform="translate(301.436367, 210.749986)"><path style="stroke:none" d="M 2.734375 0 L 2.734375 -49.3125 L 9.96875 -49.3125 L 9.96875 -22.078125 L 16.21875 -22.078125 L 27.125 -38.359375 L 34.90625 -38.359375 L 24 -22.078125 L 34.359375 -22.078125 L 34.359375 0 L 27.125 0 L 27.125 -16.28125 L 9.96875 -16.28125 L 9.96875 0 Z M 2.734375 0 "/></g></g></g></svg>